<?xml version="1.0" encoding="utf-8" standalone="no"?>
<!DOCTYPE svg PUBLIC "-//W3C//DTD SVG 1.1//EN"
  "http://www.w3.org/Graphics/SVG/1.1/DTD/svg11.dtd">
<svg xmlns:xlink="http://www.w3.org/1999/xlink" width="648pt" height="432pt" viewBox="0 0 648 432" xmlns="http://www.w3.org/2000/svg" version="1.1">
 <metadata>
  <rdf:RDF xmlns:dc="http://purl.org/dc/elements/1.1/" xmlns:cc="http://creativecommons.org/ns#" xmlns:rdf="http://www.w3.org/1999/02/22-rdf-syntax-ns#">
   <cc:Work>
    <dc:type rdf:resource="http://purl.org/dc/dcmitype/StillImage"/>
    <dc:date>2024-06-11T21:36:40.888012</dc:date>
    <dc:format>image/svg+xml</dc:format>
    <dc:creator>
     <cc:Agent>
      <dc:title>Matplotlib v3.9.0, https://matplotlib.org/</dc:title>
     </cc:Agent>
    </dc:creator>
   </cc:Work>
  </rdf:RDF>
 </metadata>
 <defs>
  <style type="text/css">*{stroke-linejoin: round; stroke-linecap: butt}</style>
 </defs>
 <g id="figure_1">
  <g id="patch_1">
   <path d="M 0 432 
L 648 432 
L 648 0 
L 0 0 
L 0 432 
z
" style="fill: none"/>
  </g>
  <g id="axes_1">
   <g id="patch_2">
    <path d="M 97.292153 220.894314 
C 97.292153 251.757514 107.674765 281.741251 126.760553 305.995524 
C 145.846342 330.249797 172.547591 347.39233 202.545254 354.650243 
L 234.907404 220.894314 
z
" style="fill: #092436; opacity: 0.5; stroke: #092436; stroke-linejoin: miter"/>
   </g>
   <g id="patch_3">
    <path d="M 202.545254 354.650243 
C 226.557131 360.459899 251.696155 359.697834 275.312037 352.444391 
C 298.927919 345.190948 320.160527 331.710308 336.771406 313.423673 
L 234.907404 220.894314 
z
" style="fill: #343c46; opacity: 0.5; stroke: #343c46; stroke-linejoin: miter"/>
   </g>
   <g id="patch_4">
    <path d="M 336.771406 313.423673 
C 348.96157 300.003728 358.380439 284.306156 364.485541 267.235048 
C 370.590642 250.163939 373.262476 232.053441 372.34716 213.946613 
L 234.907404 220.894314 
z
" style="fill: #4d2604; opacity: 0.5; stroke: #4d2604; stroke-linejoin: miter"/>
   </g>
   <g id="patch_5">
    <path d="M 372.34716 213.946613 
C 371.502653 197.240536 367.619194 180.827568 360.887656 165.514416 
C 354.156119 150.201265 344.688627 136.242992 332.950514 124.325656 
L 234.907404 220.894314 
z
" style="fill: #4d3824; opacity: 0.5; stroke: #4d3824; stroke-linejoin: miter"/>
   </g>
   <g id="patch_6">
    <path d="M 332.950514 124.325656 
C 322.195273 113.406199 309.69099 104.359847 295.954834 97.560748 
C 282.218677 90.76165 267.442666 86.304851 252.237924 84.374681 
L 234.907404 220.894314 
z
" style="fill: #0d300d; opacity: 0.5; stroke: #0d300d; stroke-linejoin: miter"/>
   </g>
   <g id="patch_7">
    <path d="M 252.237924 84.374681 
C 240.730472 82.913865 229.084355 82.913864 217.576903 84.374679 
C 206.06945 85.835493 194.792736 88.745436 184.015294 93.035211 
L 234.907404 220.894314 
z
" style="fill: #2e4329; opacity: 0.5; stroke: #2e4329; stroke-linejoin: miter"/>
   </g>
   <g id="patch_8">
    <path d="M 184.015294 93.035211 
C 175.829018 96.293617 167.974562 100.330704 160.560157 105.090843 
C 153.145752 109.850982 146.20561 115.312207 139.835364 121.399267 
L 234.907404 220.894314 
z
" style="fill: #400c0c; opacity: 0.5; stroke: #400c0c; stroke-linejoin: miter"/>
   </g>
   <g id="patch_9">
    <path d="M 139.835364 121.399267 
C 134.807674 126.203454 130.151355 131.381827 125.906437 136.889871 
C 121.661519 142.397915 117.840199 148.219802 114.475328 154.305484 
L 234.907404 220.894314 
z
" style="fill: #4d2e2d; opacity: 0.5; stroke: #4d2e2d; stroke-linejoin: miter"/>
   </g>
   <g id="patch_10">
    <path d="M 114.475328 154.305484 
C 112.681344 157.550071 111.019211 160.865832 109.493 164.244649 
C 107.966789 167.623467 106.577745 171.062581 105.329269 174.553574 
L 234.907404 220.894314 
z
" style="fill: #2c1f39; opacity: 0.5; stroke: #2c1f39; stroke-linejoin: miter"/>
   </g>
   <g id="patch_11">
    <path d="M 105.329269 174.553574 
C 104.236887 177.608096 103.252852 180.700289 102.379009 183.824356 
C 101.505166 186.948424 100.74206 190.102414 100.091123 193.280413 
L 234.907404 220.894314 
z
" style="fill: #3b3540; opacity: 0.5; stroke: #3b3540; stroke-linejoin: miter"/>
   </g>
   <g id="patch_12">
    <path d="M 100.091123 193.280413 
C 99.626191 195.550297 99.21866 197.831561 98.86892 200.122023 
C 98.51918 202.412485 98.227341 204.711415 97.993684 207.016613 
L 234.907404 220.894314 
z
" style="fill: #2a1a17; opacity: 0.5; stroke: #2a1a17; stroke-linejoin: miter"/>
   </g>
   <g id="patch_13">
    <path d="M 97.993684 207.016613 
C 97.853495 208.399685 97.734271 209.784801 97.636053 211.171486 
C 97.537835 212.558171 97.460635 213.946264 97.404479 215.335288 
L 234.907404 220.894314 
z
" style="fill: #3b2f2c; opacity: 0.5; stroke: #3b2f2c; stroke-linejoin: miter"/>
   </g>
   <g id="patch_14">
    <path d="M 97.404479 215.335288 
C 97.367042 216.261294 97.33896 217.187655 97.320238 218.114228 
C 97.301515 219.040801 97.292153 219.96754 97.292153 220.894303 
L 234.907404 220.894314 
z
" style="fill: #44243a; opacity: 0.5; stroke: #44243a; stroke-linejoin: miter"/>
   </g>
   <g id="patch_15">
    <path d="M 97.292153 220.894303 
C 97.292153 220.894303 97.292153 220.894303 97.292153 220.894303 
L 234.907404 220.894314 
z
" style="fill: #4a373f; opacity: 0.5; stroke: #4a373f; stroke-linejoin: miter"/>
   </g>
   <g id="patch_16">
    <path d="M 98.740735 219.445732 
C 98.740735 250.308932 109.123346 280.29267 128.209135 304.546942 
C 147.294924 328.801215 173.996173 345.943748 203.993836 353.201661 
L 236.355985 219.445732 
z
" style="fill: #1f77b4; stroke: #000000; stroke-linejoin: miter"/>
   </g>
   <g id="patch_17">
    <path d="M 203.993836 353.201661 
C 228.005712 359.011317 253.144737 358.249253 276.760619 350.995809 
C 300.3765 343.742366 321.609109 330.261726 338.219987 311.975091 
L 236.355985 219.445732 
z
" style="fill: #aec7e8; stroke: #000000; stroke-linejoin: miter"/>
   </g>
   <g id="patch_18">
    <path d="M 338.219987 311.975091 
C 350.410151 298.555146 359.82902 282.857575 365.934122 265.786466 
C 372.039224 248.715357 374.711058 230.604859 373.795741 212.498031 
L 236.355985 219.445732 
z
" style="fill: #ff7f0e; stroke: #000000; stroke-linejoin: miter"/>
   </g>
   <g id="patch_19">
    <path d="M 373.795741 212.498031 
C 372.951235 195.791954 369.067775 179.378986 362.336238 164.065835 
C 355.604701 148.752683 346.137209 134.79441 334.399095 122.877074 
L 236.355985 219.445732 
z
" style="fill: #ffbb78; stroke: #000000; stroke-linejoin: miter"/>
   </g>
   <g id="patch_20">
    <path d="M 334.399095 122.877074 
C 323.643854 111.957618 311.139572 102.911265 297.403415 96.112167 
C 283.667259 89.313068 268.891248 84.856269 253.686506 82.926099 
L 236.355985 219.445732 
z
" style="fill: #2ca02c; stroke: #000000; stroke-linejoin: miter"/>
   </g>
   <g id="patch_21">
    <path d="M 253.686506 82.926099 
C 242.179054 81.465283 230.532936 81.465282 219.025484 82.926097 
C 207.518032 84.386912 196.241318 87.296854 185.463875 91.586629 
L 236.355985 219.445732 
z
" style="fill: #98df8a; stroke: #000000; stroke-linejoin: miter"/>
   </g>
   <g id="patch_22">
    <path d="M 185.463875 91.586629 
C 177.277599 94.845035 169.423143 98.882122 162.008738 103.642261 
C 154.594333 108.4024 147.654192 113.863626 141.283946 119.950685 
L 236.355985 219.445732 
z
" style="fill: #d62728; stroke: #000000; stroke-linejoin: miter"/>
   </g>
   <g id="patch_23">
    <path d="M 141.283946 119.950685 
C 136.256255 124.754872 131.599937 129.933245 127.355019 135.44129 
C 123.1101 140.949334 119.288781 146.771221 115.92391 152.856903 
L 236.355985 219.445732 
z
" style="fill: #ff9896; stroke: #000000; stroke-linejoin: miter"/>
   </g>
   <g id="patch_24">
    <path d="M 115.92391 152.856903 
C 114.129925 156.10149 112.467793 159.41725 110.941582 162.796068 
C 109.415371 166.174885 108.026327 169.614 106.777851 173.104993 
L 236.355985 219.445732 
z
" style="fill: #9467bd; stroke: #000000; stroke-linejoin: miter"/>
   </g>
   <g id="patch_25">
    <path d="M 106.777851 173.104993 
C 105.685469 176.159514 104.701434 179.251707 103.827591 182.375775 
C 102.953747 185.499842 102.190642 188.653832 101.539704 191.831832 
L 236.355985 219.445732 
z
" style="fill: #c5b0d5; stroke: #000000; stroke-linejoin: miter"/>
   </g>
   <g id="patch_26">
    <path d="M 101.539704 191.831832 
C 101.074773 194.101716 100.667242 196.382979 100.317502 198.673441 
C 99.967761 200.963903 99.675923 203.262833 99.442266 205.568031 
L 236.355985 219.445732 
z
" style="fill: #8c564b; stroke: #000000; stroke-linejoin: miter"/>
   </g>
   <g id="patch_27">
    <path d="M 99.442266 205.568031 
C 99.302077 206.951103 99.182852 208.33622 99.084634 209.722904 
C 98.986417 211.109589 98.909216 212.497682 98.85306 213.886706 
L 236.355985 219.445732 
z
" style="fill: #c49c94; stroke: #000000; stroke-linejoin: miter"/>
   </g>
   <g id="patch_28">
    <path d="M 98.85306 213.886706 
C 98.815623 214.812712 98.787542 215.739073 98.768819 216.665646 
C 98.750097 217.59222 98.740735 218.518959 98.740735 219.445721 
L 236.355985 219.445732 
z
" style="fill: #e377c2; stroke: #000000; stroke-linejoin: miter"/>
   </g>
   <g id="patch_29">
    <path d="M 98.740735 219.445721 
C 98.740735 219.445721 98.740735 219.445721 98.740735 219.445721 
L 236.355985 219.445732 
z
" style="fill: #f7b6d2; stroke: #000000; stroke-linejoin: miter"/>
   </g>
   <g id="matplotlib.axis_1"/>
   <g id="matplotlib.axis_2"/>
   <g id="text_1">
    <!-- Adrián - 21.22 % -->
    <g style="fill: #ffffff" transform="translate(58.846013 314.988626) scale(0.07 -0.07)">
     <defs>
      <path id="DejaVuSans-41" d="M 2188 4044 
L 1331 1722 
L 3047 1722 
L 2188 4044 
z
M 1831 4666 
L 2547 4666 
L 4325 0 
L 3669 0 
L 3244 1197 
L 1141 1197 
L 716 0 
L 50 0 
L 1831 4666 
z
" transform="scale(0.015625)"/>
      <path id="DejaVuSans-64" d="M 2906 2969 
L 2906 4863 
L 3481 4863 
L 3481 0 
L 2906 0 
L 2906 525 
Q 2725 213 2448 61 
Q 2172 -91 1784 -91 
Q 1150 -91 751 415 
Q 353 922 353 1747 
Q 353 2572 751 3078 
Q 1150 3584 1784 3584 
Q 2172 3584 2448 3432 
Q 2725 3281 2906 2969 
z
M 947 1747 
Q 947 1113 1208 752 
Q 1469 391 1925 391 
Q 2381 391 2643 752 
Q 2906 1113 2906 1747 
Q 2906 2381 2643 2742 
Q 2381 3103 1925 3103 
Q 1469 3103 1208 2742 
Q 947 2381 947 1747 
z
" transform="scale(0.015625)"/>
      <path id="DejaVuSans-72" d="M 2631 2963 
Q 2534 3019 2420 3045 
Q 2306 3072 2169 3072 
Q 1681 3072 1420 2755 
Q 1159 2438 1159 1844 
L 1159 0 
L 581 0 
L 581 3500 
L 1159 3500 
L 1159 2956 
Q 1341 3275 1631 3429 
Q 1922 3584 2338 3584 
Q 2397 3584 2469 3576 
Q 2541 3569 2628 3553 
L 2631 2963 
z
" transform="scale(0.015625)"/>
      <path id="DejaVuSans-69" d="M 603 3500 
L 1178 3500 
L 1178 0 
L 603 0 
L 603 3500 
z
M 603 4863 
L 1178 4863 
L 1178 4134 
L 603 4134 
L 603 4863 
z
" transform="scale(0.015625)"/>
      <path id="DejaVuSans-e1" d="M 2194 1759 
Q 1497 1759 1228 1600 
Q 959 1441 959 1056 
Q 959 750 1161 570 
Q 1363 391 1709 391 
Q 2188 391 2477 730 
Q 2766 1069 2766 1631 
L 2766 1759 
L 2194 1759 
z
M 3341 1997 
L 3341 0 
L 2766 0 
L 2766 531 
Q 2569 213 2275 61 
Q 1981 -91 1556 -91 
Q 1019 -91 701 211 
Q 384 513 384 1019 
Q 384 1609 779 1909 
Q 1175 2209 1959 2209 
L 2766 2209 
L 2766 2266 
Q 2766 2663 2505 2880 
Q 2244 3097 1772 3097 
Q 1472 3097 1187 3025 
Q 903 2953 641 2809 
L 641 3341 
Q 956 3463 1253 3523 
Q 1550 3584 1831 3584 
Q 2591 3584 2966 3190 
Q 3341 2797 3341 1997 
z
M 2290 5119 
L 2912 5119 
L 1894 3944 
L 1415 3944 
L 2290 5119 
z
" transform="scale(0.015625)"/>
      <path id="DejaVuSans-6e" d="M 3513 2113 
L 3513 0 
L 2938 0 
L 2938 2094 
Q 2938 2591 2744 2837 
Q 2550 3084 2163 3084 
Q 1697 3084 1428 2787 
Q 1159 2491 1159 1978 
L 1159 0 
L 581 0 
L 581 3500 
L 1159 3500 
L 1159 2956 
Q 1366 3272 1645 3428 
Q 1925 3584 2291 3584 
Q 2894 3584 3203 3211 
Q 3513 2838 3513 2113 
z
" transform="scale(0.015625)"/>
      <path id="DejaVuSans-20" transform="scale(0.015625)"/>
      <path id="DejaVuSans-2d" d="M 313 2009 
L 1997 2009 
L 1997 1497 
L 313 1497 
L 313 2009 
z
" transform="scale(0.015625)"/>
      <path id="DejaVuSans-32" d="M 1228 531 
L 3431 531 
L 3431 0 
L 469 0 
L 469 531 
Q 828 903 1448 1529 
Q 2069 2156 2228 2338 
Q 2531 2678 2651 2914 
Q 2772 3150 2772 3378 
Q 2772 3750 2511 3984 
Q 2250 4219 1831 4219 
Q 1534 4219 1204 4116 
Q 875 4013 500 3803 
L 500 4441 
Q 881 4594 1212 4672 
Q 1544 4750 1819 4750 
Q 2544 4750 2975 4387 
Q 3406 4025 3406 3419 
Q 3406 3131 3298 2873 
Q 3191 2616 2906 2266 
Q 2828 2175 2409 1742 
Q 1991 1309 1228 531 
z
" transform="scale(0.015625)"/>
      <path id="DejaVuSans-31" d="M 794 531 
L 1825 531 
L 1825 4091 
L 703 3866 
L 703 4441 
L 1819 4666 
L 2450 4666 
L 2450 531 
L 3481 531 
L 3481 0 
L 794 0 
L 794 531 
z
" transform="scale(0.015625)"/>
      <path id="DejaVuSans-2e" d="M 684 794 
L 1344 794 
L 1344 0 
L 684 0 
L 684 794 
z
" transform="scale(0.015625)"/>
      <path id="DejaVuSans-25" d="M 4653 2053 
Q 4381 2053 4226 1822 
Q 4072 1591 4072 1178 
Q 4072 772 4226 539 
Q 4381 306 4653 306 
Q 4919 306 5073 539 
Q 5228 772 5228 1178 
Q 5228 1588 5073 1820 
Q 4919 2053 4653 2053 
z
M 4653 2450 
Q 5147 2450 5437 2106 
Q 5728 1763 5728 1178 
Q 5728 594 5436 251 
Q 5144 -91 4653 -91 
Q 4153 -91 3862 251 
Q 3572 594 3572 1178 
Q 3572 1766 3864 2108 
Q 4156 2450 4653 2450 
z
M 1428 4353 
Q 1159 4353 1004 4120 
Q 850 3888 850 3481 
Q 850 3069 1003 2837 
Q 1156 2606 1428 2606 
Q 1700 2606 1854 2837 
Q 2009 3069 2009 3481 
Q 2009 3884 1853 4118 
Q 1697 4353 1428 4353 
z
M 4250 4750 
L 4750 4750 
L 1831 -91 
L 1331 -91 
L 4250 4750 
z
M 1428 4750 
Q 1922 4750 2215 4408 
Q 2509 4066 2509 3481 
Q 2509 2891 2217 2550 
Q 1925 2209 1428 2209 
Q 931 2209 642 2551 
Q 353 2894 353 3481 
Q 353 4063 643 4406 
Q 934 4750 1428 4750 
z
" transform="scale(0.015625)"/>
     </defs>
     <use xlink:href="#DejaVuSans-41"/>
     <use xlink:href="#DejaVuSans-64" x="66.658203"/>
     <use xlink:href="#DejaVuSans-72" x="130.134766"/>
     <use xlink:href="#DejaVuSans-69" x="171.248047"/>
     <use xlink:href="#DejaVuSans-e1" x="199.03125"/>
     <use xlink:href="#DejaVuSans-6e" x="260.310547"/>
     <use xlink:href="#DejaVuSans-20" x="323.689453"/>
     <use xlink:href="#DejaVuSans-2d" x="355.476562"/>
     <use xlink:href="#DejaVuSans-20" x="391.560547"/>
     <use xlink:href="#DejaVuSans-32" x="423.347656"/>
     <use xlink:href="#DejaVuSans-31" x="486.970703"/>
     <use xlink:href="#DejaVuSans-2e" x="550.59375"/>
     <use xlink:href="#DejaVuSans-32" x="582.380859"/>
     <use xlink:href="#DejaVuSans-32" x="646.003906"/>
     <use xlink:href="#DejaVuSans-20" x="709.626953"/>
     <use xlink:href="#DejaVuSans-25" x="741.414062"/>
    </g>
   </g>
   <g id="text_2">
    <!-- Óscar - 17.04 % -->
    <g style="fill: #ffffff" transform="translate(280.801082 366.08238) scale(0.07 -0.07)">
     <defs>
      <path id="DejaVuSans-d3" d="M 2522 4238 
Q 1834 4238 1429 3725 
Q 1025 3213 1025 2328 
Q 1025 1447 1429 934 
Q 1834 422 2522 422 
Q 3209 422 3611 934 
Q 4013 1447 4013 2328 
Q 4013 3213 3611 3725 
Q 3209 4238 2522 4238 
z
M 2522 4750 
Q 3503 4750 4090 4092 
Q 4678 3434 4678 2328 
Q 4678 1225 4090 567 
Q 3503 -91 2522 -91 
Q 1538 -91 948 565 
Q 359 1222 359 2328 
Q 359 3434 948 4092 
Q 1538 4750 2522 4750 
z
M 2692 5921 
L 3270 5921 
L 2558 5096 
L 2079 5096 
L 2692 5921 
z
" transform="scale(0.015625)"/>
      <path id="DejaVuSans-73" d="M 2834 3397 
L 2834 2853 
Q 2591 2978 2328 3040 
Q 2066 3103 1784 3103 
Q 1356 3103 1142 2972 
Q 928 2841 928 2578 
Q 928 2378 1081 2264 
Q 1234 2150 1697 2047 
L 1894 2003 
Q 2506 1872 2764 1633 
Q 3022 1394 3022 966 
Q 3022 478 2636 193 
Q 2250 -91 1575 -91 
Q 1294 -91 989 -36 
Q 684 19 347 128 
L 347 722 
Q 666 556 975 473 
Q 1284 391 1588 391 
Q 1994 391 2212 530 
Q 2431 669 2431 922 
Q 2431 1156 2273 1281 
Q 2116 1406 1581 1522 
L 1381 1569 
Q 847 1681 609 1914 
Q 372 2147 372 2553 
Q 372 3047 722 3315 
Q 1072 3584 1716 3584 
Q 2034 3584 2315 3537 
Q 2597 3491 2834 3397 
z
" transform="scale(0.015625)"/>
      <path id="DejaVuSans-63" d="M 3122 3366 
L 3122 2828 
Q 2878 2963 2633 3030 
Q 2388 3097 2138 3097 
Q 1578 3097 1268 2742 
Q 959 2388 959 1747 
Q 959 1106 1268 751 
Q 1578 397 2138 397 
Q 2388 397 2633 464 
Q 2878 531 3122 666 
L 3122 134 
Q 2881 22 2623 -34 
Q 2366 -91 2075 -91 
Q 1284 -91 818 406 
Q 353 903 353 1747 
Q 353 2603 823 3093 
Q 1294 3584 2113 3584 
Q 2378 3584 2631 3529 
Q 2884 3475 3122 3366 
z
" transform="scale(0.015625)"/>
      <path id="DejaVuSans-61" d="M 2194 1759 
Q 1497 1759 1228 1600 
Q 959 1441 959 1056 
Q 959 750 1161 570 
Q 1363 391 1709 391 
Q 2188 391 2477 730 
Q 2766 1069 2766 1631 
L 2766 1759 
L 2194 1759 
z
M 3341 1997 
L 3341 0 
L 2766 0 
L 2766 531 
Q 2569 213 2275 61 
Q 1981 -91 1556 -91 
Q 1019 -91 701 211 
Q 384 513 384 1019 
Q 384 1609 779 1909 
Q 1175 2209 1959 2209 
L 2766 2209 
L 2766 2266 
Q 2766 2663 2505 2880 
Q 2244 3097 1772 3097 
Q 1472 3097 1187 3025 
Q 903 2953 641 2809 
L 641 3341 
Q 956 3463 1253 3523 
Q 1550 3584 1831 3584 
Q 2591 3584 2966 3190 
Q 3341 2797 3341 1997 
z
" transform="scale(0.015625)"/>
      <path id="DejaVuSans-37" d="M 525 4666 
L 3525 4666 
L 3525 4397 
L 1831 0 
L 1172 0 
L 2766 4134 
L 525 4134 
L 525 4666 
z
" transform="scale(0.015625)"/>
      <path id="DejaVuSans-30" d="M 2034 4250 
Q 1547 4250 1301 3770 
Q 1056 3291 1056 2328 
Q 1056 1369 1301 889 
Q 1547 409 2034 409 
Q 2525 409 2770 889 
Q 3016 1369 3016 2328 
Q 3016 3291 2770 3770 
Q 2525 4250 2034 4250 
z
M 2034 4750 
Q 2819 4750 3233 4129 
Q 3647 3509 3647 2328 
Q 3647 1150 3233 529 
Q 2819 -91 2034 -91 
Q 1250 -91 836 529 
Q 422 1150 422 2328 
Q 422 3509 836 4129 
Q 1250 4750 2034 4750 
z
" transform="scale(0.015625)"/>
      <path id="DejaVuSans-34" d="M 2419 4116 
L 825 1625 
L 2419 1625 
L 2419 4116 
z
M 2253 4666 
L 3047 4666 
L 3047 1625 
L 3713 1625 
L 3713 1100 
L 3047 1100 
L 3047 0 
L 2419 0 
L 2419 1100 
L 313 1100 
L 313 1709 
L 2253 4666 
z
" transform="scale(0.015625)"/>
     </defs>
     <use xlink:href="#DejaVuSans-d3"/>
     <use xlink:href="#DejaVuSans-73" x="78.710938"/>
     <use xlink:href="#DejaVuSans-63" x="130.810547"/>
     <use xlink:href="#DejaVuSans-61" x="185.791016"/>
     <use xlink:href="#DejaVuSans-72" x="247.070312"/>
     <use xlink:href="#DejaVuSans-20" x="288.183594"/>
     <use xlink:href="#DejaVuSans-2d" x="319.970703"/>
     <use xlink:href="#DejaVuSans-20" x="356.054688"/>
     <use xlink:href="#DejaVuSans-31" x="387.841797"/>
     <use xlink:href="#DejaVuSans-37" x="451.464844"/>
     <use xlink:href="#DejaVuSans-2e" x="515.087891"/>
     <use xlink:href="#DejaVuSans-30" x="546.875"/>
     <use xlink:href="#DejaVuSans-34" x="610.498047"/>
     <use xlink:href="#DejaVuSans-20" x="674.121094"/>
     <use xlink:href="#DejaVuSans-25" x="705.908203"/>
    </g>
   </g>
   <g id="text_3">
    <!-- Jules - 12.54 % -->
    <g style="fill: #ffffff" transform="translate(378.891936 272.352102) scale(0.07 -0.07)">
     <defs>
      <path id="DejaVuSans-4a" d="M 628 4666 
L 1259 4666 
L 1259 325 
Q 1259 -519 939 -900 
Q 619 -1281 -91 -1281 
L -331 -1281 
L -331 -750 
L -134 -750 
Q 284 -750 456 -515 
Q 628 -281 628 325 
L 628 4666 
z
" transform="scale(0.015625)"/>
      <path id="DejaVuSans-75" d="M 544 1381 
L 544 3500 
L 1119 3500 
L 1119 1403 
Q 1119 906 1312 657 
Q 1506 409 1894 409 
Q 2359 409 2629 706 
Q 2900 1003 2900 1516 
L 2900 3500 
L 3475 3500 
L 3475 0 
L 2900 0 
L 2900 538 
Q 2691 219 2414 64 
Q 2138 -91 1772 -91 
Q 1169 -91 856 284 
Q 544 659 544 1381 
z
M 1991 3584 
L 1991 3584 
z
" transform="scale(0.015625)"/>
      <path id="DejaVuSans-6c" d="M 603 4863 
L 1178 4863 
L 1178 0 
L 603 0 
L 603 4863 
z
" transform="scale(0.015625)"/>
      <path id="DejaVuSans-65" d="M 3597 1894 
L 3597 1613 
L 953 1613 
Q 991 1019 1311 708 
Q 1631 397 2203 397 
Q 2534 397 2845 478 
Q 3156 559 3463 722 
L 3463 178 
Q 3153 47 2828 -22 
Q 2503 -91 2169 -91 
Q 1331 -91 842 396 
Q 353 884 353 1716 
Q 353 2575 817 3079 
Q 1281 3584 2069 3584 
Q 2775 3584 3186 3129 
Q 3597 2675 3597 1894 
z
M 3022 2063 
Q 3016 2534 2758 2815 
Q 2500 3097 2075 3097 
Q 1594 3097 1305 2825 
Q 1016 2553 972 2059 
L 3022 2063 
z
" transform="scale(0.015625)"/>
      <path id="DejaVuSans-35" d="M 691 4666 
L 3169 4666 
L 3169 4134 
L 1269 4134 
L 1269 2991 
Q 1406 3038 1543 3061 
Q 1681 3084 1819 3084 
Q 2600 3084 3056 2656 
Q 3513 2228 3513 1497 
Q 3513 744 3044 326 
Q 2575 -91 1722 -91 
Q 1428 -91 1123 -41 
Q 819 9 494 109 
L 494 744 
Q 775 591 1075 516 
Q 1375 441 1709 441 
Q 2250 441 2565 725 
Q 2881 1009 2881 1497 
Q 2881 1984 2565 2268 
Q 2250 2553 1709 2553 
Q 1456 2553 1204 2497 
Q 953 2441 691 2322 
L 691 4666 
z
" transform="scale(0.015625)"/>
     </defs>
     <use xlink:href="#DejaVuSans-4a"/>
     <use xlink:href="#DejaVuSans-75" x="29.492188"/>
     <use xlink:href="#DejaVuSans-6c" x="92.871094"/>
     <use xlink:href="#DejaVuSans-65" x="120.654297"/>
     <use xlink:href="#DejaVuSans-73" x="182.177734"/>
     <use xlink:href="#DejaVuSans-20" x="234.277344"/>
     <use xlink:href="#DejaVuSans-2d" x="266.064453"/>
     <use xlink:href="#DejaVuSans-20" x="302.148438"/>
     <use xlink:href="#DejaVuSans-31" x="333.935547"/>
     <use xlink:href="#DejaVuSans-32" x="397.558594"/>
     <use xlink:href="#DejaVuSans-2e" x="461.181641"/>
     <use xlink:href="#DejaVuSans-35" x="492.96875"/>
     <use xlink:href="#DejaVuSans-34" x="556.591797"/>
     <use xlink:href="#DejaVuSans-20" x="620.214844"/>
     <use xlink:href="#DejaVuSans-25" x="652.001953"/>
    </g>
   </g>
   <g id="text_4">
    <!-- Sergio - 11.58 % -->
    <g style="fill: #ffffff" transform="translate(374.934263 160.459407) scale(0.07 -0.07)">
     <defs>
      <path id="DejaVuSans-53" d="M 3425 4513 
L 3425 3897 
Q 3066 4069 2747 4153 
Q 2428 4238 2131 4238 
Q 1616 4238 1336 4038 
Q 1056 3838 1056 3469 
Q 1056 3159 1242 3001 
Q 1428 2844 1947 2747 
L 2328 2669 
Q 3034 2534 3370 2195 
Q 3706 1856 3706 1288 
Q 3706 609 3251 259 
Q 2797 -91 1919 -91 
Q 1588 -91 1214 -16 
Q 841 59 441 206 
L 441 856 
Q 825 641 1194 531 
Q 1563 422 1919 422 
Q 2459 422 2753 634 
Q 3047 847 3047 1241 
Q 3047 1584 2836 1778 
Q 2625 1972 2144 2069 
L 1759 2144 
Q 1053 2284 737 2584 
Q 422 2884 422 3419 
Q 422 4038 858 4394 
Q 1294 4750 2059 4750 
Q 2388 4750 2728 4690 
Q 3069 4631 3425 4513 
z
" transform="scale(0.015625)"/>
      <path id="DejaVuSans-67" d="M 2906 1791 
Q 2906 2416 2648 2759 
Q 2391 3103 1925 3103 
Q 1463 3103 1205 2759 
Q 947 2416 947 1791 
Q 947 1169 1205 825 
Q 1463 481 1925 481 
Q 2391 481 2648 825 
Q 2906 1169 2906 1791 
z
M 3481 434 
Q 3481 -459 3084 -895 
Q 2688 -1331 1869 -1331 
Q 1566 -1331 1297 -1286 
Q 1028 -1241 775 -1147 
L 775 -588 
Q 1028 -725 1275 -790 
Q 1522 -856 1778 -856 
Q 2344 -856 2625 -561 
Q 2906 -266 2906 331 
L 2906 616 
Q 2728 306 2450 153 
Q 2172 0 1784 0 
Q 1141 0 747 490 
Q 353 981 353 1791 
Q 353 2603 747 3093 
Q 1141 3584 1784 3584 
Q 2172 3584 2450 3431 
Q 2728 3278 2906 2969 
L 2906 3500 
L 3481 3500 
L 3481 434 
z
" transform="scale(0.015625)"/>
      <path id="DejaVuSans-6f" d="M 1959 3097 
Q 1497 3097 1228 2736 
Q 959 2375 959 1747 
Q 959 1119 1226 758 
Q 1494 397 1959 397 
Q 2419 397 2687 759 
Q 2956 1122 2956 1747 
Q 2956 2369 2687 2733 
Q 2419 3097 1959 3097 
z
M 1959 3584 
Q 2709 3584 3137 3096 
Q 3566 2609 3566 1747 
Q 3566 888 3137 398 
Q 2709 -91 1959 -91 
Q 1206 -91 779 398 
Q 353 888 353 1747 
Q 353 2609 779 3096 
Q 1206 3584 1959 3584 
z
" transform="scale(0.015625)"/>
      <path id="DejaVuSans-38" d="M 2034 2216 
Q 1584 2216 1326 1975 
Q 1069 1734 1069 1313 
Q 1069 891 1326 650 
Q 1584 409 2034 409 
Q 2484 409 2743 651 
Q 3003 894 3003 1313 
Q 3003 1734 2745 1975 
Q 2488 2216 2034 2216 
z
M 1403 2484 
Q 997 2584 770 2862 
Q 544 3141 544 3541 
Q 544 4100 942 4425 
Q 1341 4750 2034 4750 
Q 2731 4750 3128 4425 
Q 3525 4100 3525 3541 
Q 3525 3141 3298 2862 
Q 3072 2584 2669 2484 
Q 3125 2378 3379 2068 
Q 3634 1759 3634 1313 
Q 3634 634 3220 271 
Q 2806 -91 2034 -91 
Q 1263 -91 848 271 
Q 434 634 434 1313 
Q 434 1759 690 2068 
Q 947 2378 1403 2484 
z
M 1172 3481 
Q 1172 3119 1398 2916 
Q 1625 2713 2034 2713 
Q 2441 2713 2670 2916 
Q 2900 3119 2900 3481 
Q 2900 3844 2670 4047 
Q 2441 4250 2034 4250 
Q 1625 4250 1398 4047 
Q 1172 3844 1172 3481 
z
" transform="scale(0.015625)"/>
     </defs>
     <use xlink:href="#DejaVuSans-53"/>
     <use xlink:href="#DejaVuSans-65" x="63.476562"/>
     <use xlink:href="#DejaVuSans-72" x="125"/>
     <use xlink:href="#DejaVuSans-67" x="164.363281"/>
     <use xlink:href="#DejaVuSans-69" x="227.839844"/>
     <use xlink:href="#DejaVuSans-6f" x="255.623047"/>
     <use xlink:href="#DejaVuSans-20" x="316.804688"/>
     <use xlink:href="#DejaVuSans-2d" x="348.591797"/>
     <use xlink:href="#DejaVuSans-20" x="384.675781"/>
     <use xlink:href="#DejaVuSans-31" x="416.462891"/>
     <use xlink:href="#DejaVuSans-31" x="480.085938"/>
     <use xlink:href="#DejaVuSans-2e" x="543.708984"/>
     <use xlink:href="#DejaVuSans-35" x="575.496094"/>
     <use xlink:href="#DejaVuSans-38" x="639.119141"/>
     <use xlink:href="#DejaVuSans-20" x="702.742188"/>
     <use xlink:href="#DejaVuSans-25" x="734.529297"/>
    </g>
   </g>
   <g id="text_5">
    <!-- André - 10.61 % -->
    <g style="fill: #ffffff" transform="translate(303.508159 85.710373) scale(0.07 -0.07)">
     <defs>
      <path id="DejaVuSans-e9" d="M 3597 1894 
L 3597 1613 
L 953 1613 
Q 991 1019 1311 708 
Q 1631 397 2203 397 
Q 2534 397 2845 478 
Q 3156 559 3463 722 
L 3463 178 
Q 3153 47 2828 -22 
Q 2503 -91 2169 -91 
Q 1331 -91 842 396 
Q 353 884 353 1716 
Q 353 2575 817 3079 
Q 1281 3584 2069 3584 
Q 2775 3584 3186 3129 
Q 3597 2675 3597 1894 
z
M 3022 2063 
Q 3016 2534 2758 2815 
Q 2500 3097 2075 3097 
Q 1594 3097 1305 2825 
Q 1016 2553 972 2059 
L 3022 2063 
z
M 2466 5119 
L 3088 5119 
L 2070 3944 
L 1591 3944 
L 2466 5119 
z
" transform="scale(0.015625)"/>
      <path id="DejaVuSans-36" d="M 2113 2584 
Q 1688 2584 1439 2293 
Q 1191 2003 1191 1497 
Q 1191 994 1439 701 
Q 1688 409 2113 409 
Q 2538 409 2786 701 
Q 3034 994 3034 1497 
Q 3034 2003 2786 2293 
Q 2538 2584 2113 2584 
z
M 3366 4563 
L 3366 3988 
Q 3128 4100 2886 4159 
Q 2644 4219 2406 4219 
Q 1781 4219 1451 3797 
Q 1122 3375 1075 2522 
Q 1259 2794 1537 2939 
Q 1816 3084 2150 3084 
Q 2853 3084 3261 2657 
Q 3669 2231 3669 1497 
Q 3669 778 3244 343 
Q 2819 -91 2113 -91 
Q 1303 -91 875 529 
Q 447 1150 447 2328 
Q 447 3434 972 4092 
Q 1497 4750 2381 4750 
Q 2619 4750 2861 4703 
Q 3103 4656 3366 4563 
z
" transform="scale(0.015625)"/>
     </defs>
     <use xlink:href="#DejaVuSans-41"/>
     <use xlink:href="#DejaVuSans-6e" x="68.408203"/>
     <use xlink:href="#DejaVuSans-64" x="131.787109"/>
     <use xlink:href="#DejaVuSans-72" x="195.263672"/>
     <use xlink:href="#DejaVuSans-e9" x="234.126953"/>
     <use xlink:href="#DejaVuSans-20" x="295.650391"/>
     <use xlink:href="#DejaVuSans-2d" x="327.4375"/>
     <use xlink:href="#DejaVuSans-20" x="363.521484"/>
     <use xlink:href="#DejaVuSans-31" x="395.308594"/>
     <use xlink:href="#DejaVuSans-30" x="458.931641"/>
     <use xlink:href="#DejaVuSans-2e" x="522.554688"/>
     <use xlink:href="#DejaVuSans-36" x="554.341797"/>
     <use xlink:href="#DejaVuSans-31" x="617.964844"/>
     <use xlink:href="#DejaVuSans-20" x="681.587891"/>
     <use xlink:href="#DejaVuSans-25" x="713.375"/>
    </g>
   </g>
   <g id="text_6">
    <!-- Matilde - 8.04 % -->
    <g style="fill: #ffffff" transform="translate(160.141809 71.205696) scale(0.07 -0.07)">
     <defs>
      <path id="DejaVuSans-4d" d="M 628 4666 
L 1569 4666 
L 2759 1491 
L 3956 4666 
L 4897 4666 
L 4897 0 
L 4281 0 
L 4281 4097 
L 3078 897 
L 2444 897 
L 1241 4097 
L 1241 0 
L 628 0 
L 628 4666 
z
" transform="scale(0.015625)"/>
      <path id="DejaVuSans-74" d="M 1172 4494 
L 1172 3500 
L 2356 3500 
L 2356 3053 
L 1172 3053 
L 1172 1153 
Q 1172 725 1289 603 
Q 1406 481 1766 481 
L 2356 481 
L 2356 0 
L 1766 0 
Q 1100 0 847 248 
Q 594 497 594 1153 
L 594 3053 
L 172 3053 
L 172 3500 
L 594 3500 
L 594 4494 
L 1172 4494 
z
" transform="scale(0.015625)"/>
     </defs>
     <use xlink:href="#DejaVuSans-4d"/>
     <use xlink:href="#DejaVuSans-61" x="86.279297"/>
     <use xlink:href="#DejaVuSans-74" x="147.558594"/>
     <use xlink:href="#DejaVuSans-69" x="186.767578"/>
     <use xlink:href="#DejaVuSans-6c" x="214.550781"/>
     <use xlink:href="#DejaVuSans-64" x="242.333984"/>
     <use xlink:href="#DejaVuSans-65" x="305.810547"/>
     <use xlink:href="#DejaVuSans-20" x="367.333984"/>
     <use xlink:href="#DejaVuSans-2d" x="399.121094"/>
     <use xlink:href="#DejaVuSans-20" x="435.205078"/>
     <use xlink:href="#DejaVuSans-38" x="466.992188"/>
     <use xlink:href="#DejaVuSans-2e" x="530.615234"/>
     <use xlink:href="#DejaVuSans-30" x="562.402344"/>
     <use xlink:href="#DejaVuSans-34" x="626.025391"/>
     <use xlink:href="#DejaVuSans-20" x="689.648438"/>
     <use xlink:href="#DejaVuSans-25" x="721.435547"/>
    </g>
   </g>
   <g id="text_7">
    <!-- Aritz - 6.11 % -->
    <g style="fill: #ffffff" transform="translate(107.108545 93.993476) scale(0.07 -0.07)">
     <defs>
      <path id="DejaVuSans-7a" d="M 353 3500 
L 3084 3500 
L 3084 2975 
L 922 459 
L 3084 459 
L 3084 0 
L 275 0 
L 275 525 
L 2438 3041 
L 353 3041 
L 353 3500 
z
" transform="scale(0.015625)"/>
     </defs>
     <use xlink:href="#DejaVuSans-41"/>
     <use xlink:href="#DejaVuSans-72" x="68.408203"/>
     <use xlink:href="#DejaVuSans-69" x="109.521484"/>
     <use xlink:href="#DejaVuSans-74" x="137.304688"/>
     <use xlink:href="#DejaVuSans-7a" x="176.513672"/>
     <use xlink:href="#DejaVuSans-20" x="229.003906"/>
     <use xlink:href="#DejaVuSans-2d" x="260.791016"/>
     <use xlink:href="#DejaVuSans-20" x="296.875"/>
     <use xlink:href="#DejaVuSans-36" x="328.662109"/>
     <use xlink:href="#DejaVuSans-2e" x="392.285156"/>
     <use xlink:href="#DejaVuSans-31" x="424.072266"/>
     <use xlink:href="#DejaVuSans-31" x="487.695312"/>
     <use xlink:href="#DejaVuSans-20" x="551.318359"/>
     <use xlink:href="#DejaVuSans-25" x="583.105469"/>
    </g>
   </g>
   <g id="text_8">
    <!-- Andrea - 4.82 % -->
    <g style="fill: #ffffff" transform="translate(60.032735 128.972408) scale(0.07 -0.07)">
     <use xlink:href="#DejaVuSans-41"/>
     <use xlink:href="#DejaVuSans-6e" x="68.408203"/>
     <use xlink:href="#DejaVuSans-64" x="131.787109"/>
     <use xlink:href="#DejaVuSans-72" x="195.263672"/>
     <use xlink:href="#DejaVuSans-65" x="234.126953"/>
     <use xlink:href="#DejaVuSans-61" x="295.650391"/>
     <use xlink:href="#DejaVuSans-20" x="356.929688"/>
     <use xlink:href="#DejaVuSans-2d" x="388.716797"/>
     <use xlink:href="#DejaVuSans-20" x="424.800781"/>
     <use xlink:href="#DejaVuSans-34" x="456.587891"/>
     <use xlink:href="#DejaVuSans-2e" x="520.210938"/>
     <use xlink:href="#DejaVuSans-38" x="551.998047"/>
     <use xlink:href="#DejaVuSans-32" x="615.621094"/>
     <use xlink:href="#DejaVuSans-20" x="679.244141"/>
     <use xlink:href="#DejaVuSans-25" x="711.03125"/>
    </g>
   </g>
   <g id="text_9">
    <!-- África - 2.57 % -->
    <g style="fill: #ffffff" transform="translate(47.003735 159.062664) scale(0.07 -0.07)">
     <defs>
      <path id="DejaVuSans-c1" d="M 2188 4044 
L 1331 1722 
L 3047 1722 
L 2188 4044 
z
M 1831 4666 
L 2547 4666 
L 4325 0 
L 3669 0 
L 3244 1197 
L 1141 1197 
L 716 0 
L 50 0 
L 1831 4666 
z
M 2356 5921 
L 2934 5921 
L 2222 5096 
L 1743 5096 
L 2356 5921 
z
" transform="scale(0.015625)"/>
      <path id="DejaVuSans-66" d="M 2375 4863 
L 2375 4384 
L 1825 4384 
Q 1516 4384 1395 4259 
Q 1275 4134 1275 3809 
L 1275 3500 
L 2222 3500 
L 2222 3053 
L 1275 3053 
L 1275 0 
L 697 0 
L 697 3053 
L 147 3053 
L 147 3500 
L 697 3500 
L 697 3744 
Q 697 4328 969 4595 
Q 1241 4863 1831 4863 
L 2375 4863 
z
" transform="scale(0.015625)"/>
     </defs>
     <use xlink:href="#DejaVuSans-c1"/>
     <use xlink:href="#DejaVuSans-66" x="64.783203"/>
     <use xlink:href="#DejaVuSans-72" x="99.988281"/>
     <use xlink:href="#DejaVuSans-69" x="141.101562"/>
     <use xlink:href="#DejaVuSans-63" x="168.884766"/>
     <use xlink:href="#DejaVuSans-61" x="223.865234"/>
     <use xlink:href="#DejaVuSans-20" x="285.144531"/>
     <use xlink:href="#DejaVuSans-2d" x="316.931641"/>
     <use xlink:href="#DejaVuSans-20" x="353.015625"/>
     <use xlink:href="#DejaVuSans-32" x="384.802734"/>
     <use xlink:href="#DejaVuSans-2e" x="448.425781"/>
     <use xlink:href="#DejaVuSans-35" x="480.212891"/>
     <use xlink:href="#DejaVuSans-37" x="543.835938"/>
     <use xlink:href="#DejaVuSans-20" x="607.458984"/>
     <use xlink:href="#DejaVuSans-25" x="639.246094"/>
    </g>
   </g>
   <g id="text_10">
    <!-- Mario - 2.25 % -->
    <g style="fill: #ffffff" transform="translate(39.703345 180.600342) scale(0.07 -0.07)">
     <use xlink:href="#DejaVuSans-4d"/>
     <use xlink:href="#DejaVuSans-61" x="86.279297"/>
     <use xlink:href="#DejaVuSans-72" x="147.558594"/>
     <use xlink:href="#DejaVuSans-69" x="188.671875"/>
     <use xlink:href="#DejaVuSans-6f" x="216.455078"/>
     <use xlink:href="#DejaVuSans-20" x="277.636719"/>
     <use xlink:href="#DejaVuSans-2d" x="309.423828"/>
     <use xlink:href="#DejaVuSans-20" x="345.507812"/>
     <use xlink:href="#DejaVuSans-32" x="377.294922"/>
     <use xlink:href="#DejaVuSans-2e" x="440.917969"/>
     <use xlink:href="#DejaVuSans-32" x="472.705078"/>
     <use xlink:href="#DejaVuSans-35" x="536.328125"/>
     <use xlink:href="#DejaVuSans-20" x="599.951172"/>
     <use xlink:href="#DejaVuSans-25" x="631.738281"/>
    </g>
   </g>
   <g id="text_11">
    <!-- Meri - 1.61 % -->
    <g style="fill: #ffffff" transform="translate(40.107872 198.527775) scale(0.07 -0.07)">
     <use xlink:href="#DejaVuSans-4d"/>
     <use xlink:href="#DejaVuSans-65" x="86.279297"/>
     <use xlink:href="#DejaVuSans-72" x="147.802734"/>
     <use xlink:href="#DejaVuSans-69" x="188.916016"/>
     <use xlink:href="#DejaVuSans-20" x="216.699219"/>
     <use xlink:href="#DejaVuSans-2d" x="248.486328"/>
     <use xlink:href="#DejaVuSans-20" x="284.570312"/>
     <use xlink:href="#DejaVuSans-31" x="316.357422"/>
     <use xlink:href="#DejaVuSans-2e" x="379.980469"/>
     <use xlink:href="#DejaVuSans-36" x="411.767578"/>
     <use xlink:href="#DejaVuSans-31" x="475.390625"/>
     <use xlink:href="#DejaVuSans-20" x="539.013672"/>
     <use xlink:href="#DejaVuSans-25" x="570.800781"/>
    </g>
   </g>
   <g id="text_12">
    <!-- Yassin - 0.96 % -->
    <g style="fill: #ffffff" transform="translate(32.644218 210.682184) scale(0.07 -0.07)">
     <defs>
      <path id="DejaVuSans-59" d="M -13 4666 
L 666 4666 
L 1959 2747 
L 3244 4666 
L 3922 4666 
L 2272 2222 
L 2272 0 
L 1638 0 
L 1638 2222 
L -13 4666 
z
" transform="scale(0.015625)"/>
      <path id="DejaVuSans-39" d="M 703 97 
L 703 672 
Q 941 559 1184 500 
Q 1428 441 1663 441 
Q 2288 441 2617 861 
Q 2947 1281 2994 2138 
Q 2813 1869 2534 1725 
Q 2256 1581 1919 1581 
Q 1219 1581 811 2004 
Q 403 2428 403 3163 
Q 403 3881 828 4315 
Q 1253 4750 1959 4750 
Q 2769 4750 3195 4129 
Q 3622 3509 3622 2328 
Q 3622 1225 3098 567 
Q 2575 -91 1691 -91 
Q 1453 -91 1209 -44 
Q 966 3 703 97 
z
M 1959 2075 
Q 2384 2075 2632 2365 
Q 2881 2656 2881 3163 
Q 2881 3666 2632 3958 
Q 2384 4250 1959 4250 
Q 1534 4250 1286 3958 
Q 1038 3666 1038 3163 
Q 1038 2656 1286 2365 
Q 1534 2075 1959 2075 
z
" transform="scale(0.015625)"/>
     </defs>
     <use xlink:href="#DejaVuSans-59"/>
     <use xlink:href="#DejaVuSans-61" x="47.333984"/>
     <use xlink:href="#DejaVuSans-73" x="108.613281"/>
     <use xlink:href="#DejaVuSans-73" x="160.712891"/>
     <use xlink:href="#DejaVuSans-69" x="212.8125"/>
     <use xlink:href="#DejaVuSans-6e" x="240.595703"/>
     <use xlink:href="#DejaVuSans-20" x="303.974609"/>
     <use xlink:href="#DejaVuSans-2d" x="335.761719"/>
     <use xlink:href="#DejaVuSans-20" x="371.845703"/>
     <use xlink:href="#DejaVuSans-30" x="403.632812"/>
     <use xlink:href="#DejaVuSans-2e" x="467.255859"/>
     <use xlink:href="#DejaVuSans-39" x="499.042969"/>
     <use xlink:href="#DejaVuSans-36" x="562.666016"/>
     <use xlink:href="#DejaVuSans-20" x="626.289062"/>
     <use xlink:href="#DejaVuSans-25" x="658.076172"/>
    </g>
   </g>
   <g id="text_13">
    <!-- Haizea - 0.64 % -->
    <g style="fill: #ffffff" transform="translate(29.804165 218.3192) scale(0.07 -0.07)">
     <defs>
      <path id="DejaVuSans-48" d="M 628 4666 
L 1259 4666 
L 1259 2753 
L 3553 2753 
L 3553 4666 
L 4184 4666 
L 4184 0 
L 3553 0 
L 3553 2222 
L 1259 2222 
L 1259 0 
L 628 0 
L 628 4666 
z
" transform="scale(0.015625)"/>
     </defs>
     <use xlink:href="#DejaVuSans-48"/>
     <use xlink:href="#DejaVuSans-61" x="75.195312"/>
     <use xlink:href="#DejaVuSans-69" x="136.474609"/>
     <use xlink:href="#DejaVuSans-7a" x="164.257812"/>
     <use xlink:href="#DejaVuSans-65" x="216.748047"/>
     <use xlink:href="#DejaVuSans-61" x="278.271484"/>
     <use xlink:href="#DejaVuSans-20" x="339.550781"/>
     <use xlink:href="#DejaVuSans-2d" x="371.337891"/>
     <use xlink:href="#DejaVuSans-20" x="407.421875"/>
     <use xlink:href="#DejaVuSans-30" x="439.208984"/>
     <use xlink:href="#DejaVuSans-2e" x="502.832031"/>
     <use xlink:href="#DejaVuSans-36" x="534.619141"/>
     <use xlink:href="#DejaVuSans-34" x="598.242188"/>
     <use xlink:href="#DejaVuSans-20" x="661.865234"/>
     <use xlink:href="#DejaVuSans-25" x="693.652344"/>
    </g>
   </g>
   <g id="text_14">
    <!-- Adriana - 0.00 % -->
    <g style="fill: #ffffff" transform="translate(26.594835 221.377283) scale(0.07 -0.07)">
     <use xlink:href="#DejaVuSans-41"/>
     <use xlink:href="#DejaVuSans-64" x="66.658203"/>
     <use xlink:href="#DejaVuSans-72" x="130.134766"/>
     <use xlink:href="#DejaVuSans-69" x="171.248047"/>
     <use xlink:href="#DejaVuSans-61" x="199.03125"/>
     <use xlink:href="#DejaVuSans-6e" x="260.310547"/>
     <use xlink:href="#DejaVuSans-61" x="323.689453"/>
     <use xlink:href="#DejaVuSans-20" x="384.96875"/>
     <use xlink:href="#DejaVuSans-2d" x="416.755859"/>
     <use xlink:href="#DejaVuSans-20" x="452.839844"/>
     <use xlink:href="#DejaVuSans-30" x="484.626953"/>
     <use xlink:href="#DejaVuSans-2e" x="548.25"/>
     <use xlink:href="#DejaVuSans-30" x="580.037109"/>
     <use xlink:href="#DejaVuSans-30" x="643.660156"/>
     <use xlink:href="#DejaVuSans-20" x="707.283203"/>
     <use xlink:href="#DejaVuSans-25" x="739.070312"/>
    </g>
   </g>
  </g>
  <g id="axes_2">
   <g id="legend_1">
    <g id="patch_30">
     <path d="M 500.951932 331.03167 
L 592.37537 331.03167 
Q 594.37537 331.03167 594.37537 329.03167 
L 594.37537 109.859795 
Q 594.37537 107.859795 592.37537 107.859795 
L 500.951932 107.859795 
Q 498.951932 107.859795 498.951932 109.859795 
L 498.951932 329.03167 
Q 498.951932 331.03167 500.951932 331.03167 
z
" style="fill: #ffffff; opacity: 0.8; stroke: #cccccc; stroke-linejoin: miter"/>
    </g>
    <g id="text_15">
     <!-- Usuarios - Links -->
     <g transform="translate(507.232401 119.458232) scale(0.1 -0.1)">
      <defs>
       <path id="DejaVuSans-55" d="M 556 4666 
L 1191 4666 
L 1191 1831 
Q 1191 1081 1462 751 
Q 1734 422 2344 422 
Q 2950 422 3222 751 
Q 3494 1081 3494 1831 
L 3494 4666 
L 4128 4666 
L 4128 1753 
Q 4128 841 3676 375 
Q 3225 -91 2344 -91 
Q 1459 -91 1007 375 
Q 556 841 556 1753 
L 556 4666 
z
" transform="scale(0.015625)"/>
       <path id="DejaVuSans-4c" d="M 628 4666 
L 1259 4666 
L 1259 531 
L 3531 531 
L 3531 0 
L 628 0 
L 628 4666 
z
" transform="scale(0.015625)"/>
       <path id="DejaVuSans-6b" d="M 581 4863 
L 1159 4863 
L 1159 1991 
L 2875 3500 
L 3609 3500 
L 1753 1863 
L 3688 0 
L 2938 0 
L 1159 1709 
L 1159 0 
L 581 0 
L 581 4863 
z
" transform="scale(0.015625)"/>
      </defs>
      <use xlink:href="#DejaVuSans-55"/>
      <use xlink:href="#DejaVuSans-73" x="73.193359"/>
      <use xlink:href="#DejaVuSans-75" x="125.292969"/>
      <use xlink:href="#DejaVuSans-61" x="188.671875"/>
      <use xlink:href="#DejaVuSans-72" x="249.951172"/>
      <use xlink:href="#DejaVuSans-69" x="291.064453"/>
      <use xlink:href="#DejaVuSans-6f" x="318.847656"/>
      <use xlink:href="#DejaVuSans-73" x="380.029297"/>
      <use xlink:href="#DejaVuSans-20" x="432.128906"/>
      <use xlink:href="#DejaVuSans-2d" x="463.916016"/>
      <use xlink:href="#DejaVuSans-20" x="500"/>
      <use xlink:href="#DejaVuSans-4c" x="531.787109"/>
      <use xlink:href="#DejaVuSans-69" x="587.5"/>
      <use xlink:href="#DejaVuSans-6e" x="615.283203"/>
      <use xlink:href="#DejaVuSans-6b" x="678.662109"/>
      <use xlink:href="#DejaVuSans-73" x="736.572266"/>
     </g>
    </g>
    <g id="patch_31">
     <path d="M 502.951932 134.136357 
L 522.951932 134.136357 
L 522.951932 127.136357 
L 502.951932 127.136357 
z
" style="fill: #1f77b4; stroke: #000000; stroke-linejoin: miter"/>
    </g>
    <g id="text_16">
     <!-- Adrián - 66 -->
     <g transform="translate(530.951932 134.136357) scale(0.1 -0.1)">
      <use xlink:href="#DejaVuSans-41"/>
      <use xlink:href="#DejaVuSans-64" x="66.658203"/>
      <use xlink:href="#DejaVuSans-72" x="130.134766"/>
      <use xlink:href="#DejaVuSans-69" x="171.248047"/>
      <use xlink:href="#DejaVuSans-e1" x="199.03125"/>
      <use xlink:href="#DejaVuSans-6e" x="260.310547"/>
      <use xlink:href="#DejaVuSans-20" x="323.689453"/>
      <use xlink:href="#DejaVuSans-2d" x="355.476562"/>
      <use xlink:href="#DejaVuSans-20" x="391.560547"/>
      <use xlink:href="#DejaVuSans-36" x="423.347656"/>
      <use xlink:href="#DejaVuSans-36" x="486.970703"/>
     </g>
    </g>
    <g id="patch_32">
     <path d="M 502.951932 148.814482 
L 522.951932 148.814482 
L 522.951932 141.814482 
L 502.951932 141.814482 
z
" style="fill: #aec7e8; stroke: #000000; stroke-linejoin: miter"/>
    </g>
    <g id="text_17">
     <!-- Óscar - 53 -->
     <g transform="translate(530.951932 148.814482) scale(0.1 -0.1)">
      <defs>
       <path id="DejaVuSans-33" d="M 2597 2516 
Q 3050 2419 3304 2112 
Q 3559 1806 3559 1356 
Q 3559 666 3084 287 
Q 2609 -91 1734 -91 
Q 1441 -91 1130 -33 
Q 819 25 488 141 
L 488 750 
Q 750 597 1062 519 
Q 1375 441 1716 441 
Q 2309 441 2620 675 
Q 2931 909 2931 1356 
Q 2931 1769 2642 2001 
Q 2353 2234 1838 2234 
L 1294 2234 
L 1294 2753 
L 1863 2753 
Q 2328 2753 2575 2939 
Q 2822 3125 2822 3475 
Q 2822 3834 2567 4026 
Q 2313 4219 1838 4219 
Q 1578 4219 1281 4162 
Q 984 4106 628 3988 
L 628 4550 
Q 988 4650 1302 4700 
Q 1616 4750 1894 4750 
Q 2613 4750 3031 4423 
Q 3450 4097 3450 3541 
Q 3450 3153 3228 2886 
Q 3006 2619 2597 2516 
z
" transform="scale(0.015625)"/>
      </defs>
      <use xlink:href="#DejaVuSans-d3"/>
      <use xlink:href="#DejaVuSans-73" x="78.710938"/>
      <use xlink:href="#DejaVuSans-63" x="130.810547"/>
      <use xlink:href="#DejaVuSans-61" x="185.791016"/>
      <use xlink:href="#DejaVuSans-72" x="247.070312"/>
      <use xlink:href="#DejaVuSans-20" x="288.183594"/>
      <use xlink:href="#DejaVuSans-2d" x="319.970703"/>
      <use xlink:href="#DejaVuSans-20" x="356.054688"/>
      <use xlink:href="#DejaVuSans-35" x="387.841797"/>
      <use xlink:href="#DejaVuSans-33" x="451.464844"/>
     </g>
    </g>
    <g id="patch_33">
     <path d="M 502.951932 163.492607 
L 522.951932 163.492607 
L 522.951932 156.492607 
L 502.951932 156.492607 
z
" style="fill: #ff7f0e; stroke: #000000; stroke-linejoin: miter"/>
    </g>
    <g id="text_18">
     <!-- Jules - 39 -->
     <g transform="translate(530.951932 163.492607) scale(0.1 -0.1)">
      <use xlink:href="#DejaVuSans-4a"/>
      <use xlink:href="#DejaVuSans-75" x="29.492188"/>
      <use xlink:href="#DejaVuSans-6c" x="92.871094"/>
      <use xlink:href="#DejaVuSans-65" x="120.654297"/>
      <use xlink:href="#DejaVuSans-73" x="182.177734"/>
      <use xlink:href="#DejaVuSans-20" x="234.277344"/>
      <use xlink:href="#DejaVuSans-2d" x="266.064453"/>
      <use xlink:href="#DejaVuSans-20" x="302.148438"/>
      <use xlink:href="#DejaVuSans-33" x="333.935547"/>
      <use xlink:href="#DejaVuSans-39" x="397.558594"/>
     </g>
    </g>
    <g id="patch_34">
     <path d="M 502.951932 178.170732 
L 522.951932 178.170732 
L 522.951932 171.170732 
L 502.951932 171.170732 
z
" style="fill: #ffbb78; stroke: #000000; stroke-linejoin: miter"/>
    </g>
    <g id="text_19">
     <!-- Sergio - 36 -->
     <g transform="translate(530.951932 178.170732) scale(0.1 -0.1)">
      <use xlink:href="#DejaVuSans-53"/>
      <use xlink:href="#DejaVuSans-65" x="63.476562"/>
      <use xlink:href="#DejaVuSans-72" x="125"/>
      <use xlink:href="#DejaVuSans-67" x="164.363281"/>
      <use xlink:href="#DejaVuSans-69" x="227.839844"/>
      <use xlink:href="#DejaVuSans-6f" x="255.623047"/>
      <use xlink:href="#DejaVuSans-20" x="316.804688"/>
      <use xlink:href="#DejaVuSans-2d" x="348.591797"/>
      <use xlink:href="#DejaVuSans-20" x="384.675781"/>
      <use xlink:href="#DejaVuSans-33" x="416.462891"/>
      <use xlink:href="#DejaVuSans-36" x="480.085938"/>
     </g>
    </g>
    <g id="patch_35">
     <path d="M 502.951932 192.848857 
L 522.951932 192.848857 
L 522.951932 185.848857 
L 502.951932 185.848857 
z
" style="fill: #2ca02c; stroke: #000000; stroke-linejoin: miter"/>
    </g>
    <g id="text_20">
     <!-- André - 33 -->
     <g transform="translate(530.951932 192.848857) scale(0.1 -0.1)">
      <use xlink:href="#DejaVuSans-41"/>
      <use xlink:href="#DejaVuSans-6e" x="68.408203"/>
      <use xlink:href="#DejaVuSans-64" x="131.787109"/>
      <use xlink:href="#DejaVuSans-72" x="195.263672"/>
      <use xlink:href="#DejaVuSans-e9" x="234.126953"/>
      <use xlink:href="#DejaVuSans-20" x="295.650391"/>
      <use xlink:href="#DejaVuSans-2d" x="327.4375"/>
      <use xlink:href="#DejaVuSans-20" x="363.521484"/>
      <use xlink:href="#DejaVuSans-33" x="395.308594"/>
      <use xlink:href="#DejaVuSans-33" x="458.931641"/>
     </g>
    </g>
    <g id="patch_36">
     <path d="M 502.951932 207.526982 
L 522.951932 207.526982 
L 522.951932 200.526982 
L 502.951932 200.526982 
z
" style="fill: #98df8a; stroke: #000000; stroke-linejoin: miter"/>
    </g>
    <g id="text_21">
     <!-- Matilde - 25 -->
     <g transform="translate(530.951932 207.526982) scale(0.1 -0.1)">
      <use xlink:href="#DejaVuSans-4d"/>
      <use xlink:href="#DejaVuSans-61" x="86.279297"/>
      <use xlink:href="#DejaVuSans-74" x="147.558594"/>
      <use xlink:href="#DejaVuSans-69" x="186.767578"/>
      <use xlink:href="#DejaVuSans-6c" x="214.550781"/>
      <use xlink:href="#DejaVuSans-64" x="242.333984"/>
      <use xlink:href="#DejaVuSans-65" x="305.810547"/>
      <use xlink:href="#DejaVuSans-20" x="367.333984"/>
      <use xlink:href="#DejaVuSans-2d" x="399.121094"/>
      <use xlink:href="#DejaVuSans-20" x="435.205078"/>
      <use xlink:href="#DejaVuSans-32" x="466.992188"/>
      <use xlink:href="#DejaVuSans-35" x="530.615234"/>
     </g>
    </g>
    <g id="patch_37">
     <path d="M 502.951932 222.205107 
L 522.951932 222.205107 
L 522.951932 215.205107 
L 502.951932 215.205107 
z
" style="fill: #d62728; stroke: #000000; stroke-linejoin: miter"/>
    </g>
    <g id="text_22">
     <!-- Aritz - 19 -->
     <g transform="translate(530.951932 222.205107) scale(0.1 -0.1)">
      <use xlink:href="#DejaVuSans-41"/>
      <use xlink:href="#DejaVuSans-72" x="68.408203"/>
      <use xlink:href="#DejaVuSans-69" x="109.521484"/>
      <use xlink:href="#DejaVuSans-74" x="137.304688"/>
      <use xlink:href="#DejaVuSans-7a" x="176.513672"/>
      <use xlink:href="#DejaVuSans-20" x="229.003906"/>
      <use xlink:href="#DejaVuSans-2d" x="260.791016"/>
      <use xlink:href="#DejaVuSans-20" x="296.875"/>
      <use xlink:href="#DejaVuSans-31" x="328.662109"/>
      <use xlink:href="#DejaVuSans-39" x="392.285156"/>
     </g>
    </g>
    <g id="patch_38">
     <path d="M 502.951932 236.883232 
L 522.951932 236.883232 
L 522.951932 229.883232 
L 502.951932 229.883232 
z
" style="fill: #ff9896; stroke: #000000; stroke-linejoin: miter"/>
    </g>
    <g id="text_23">
     <!-- Andrea - 15 -->
     <g transform="translate(530.951932 236.883232) scale(0.1 -0.1)">
      <use xlink:href="#DejaVuSans-41"/>
      <use xlink:href="#DejaVuSans-6e" x="68.408203"/>
      <use xlink:href="#DejaVuSans-64" x="131.787109"/>
      <use xlink:href="#DejaVuSans-72" x="195.263672"/>
      <use xlink:href="#DejaVuSans-65" x="234.126953"/>
      <use xlink:href="#DejaVuSans-61" x="295.650391"/>
      <use xlink:href="#DejaVuSans-20" x="356.929688"/>
      <use xlink:href="#DejaVuSans-2d" x="388.716797"/>
      <use xlink:href="#DejaVuSans-20" x="424.800781"/>
      <use xlink:href="#DejaVuSans-31" x="456.587891"/>
      <use xlink:href="#DejaVuSans-35" x="520.210938"/>
     </g>
    </g>
    <g id="patch_39">
     <path d="M 502.951932 251.561357 
L 522.951932 251.561357 
L 522.951932 244.561357 
L 502.951932 244.561357 
z
" style="fill: #9467bd; stroke: #000000; stroke-linejoin: miter"/>
    </g>
    <g id="text_24">
     <!-- África - 8 -->
     <g transform="translate(530.951932 251.561357) scale(0.1 -0.1)">
      <use xlink:href="#DejaVuSans-c1"/>
      <use xlink:href="#DejaVuSans-66" x="64.783203"/>
      <use xlink:href="#DejaVuSans-72" x="99.988281"/>
      <use xlink:href="#DejaVuSans-69" x="141.101562"/>
      <use xlink:href="#DejaVuSans-63" x="168.884766"/>
      <use xlink:href="#DejaVuSans-61" x="223.865234"/>
      <use xlink:href="#DejaVuSans-20" x="285.144531"/>
      <use xlink:href="#DejaVuSans-2d" x="316.931641"/>
      <use xlink:href="#DejaVuSans-20" x="353.015625"/>
      <use xlink:href="#DejaVuSans-38" x="384.802734"/>
     </g>
    </g>
    <g id="patch_40">
     <path d="M 502.951932 266.239482 
L 522.951932 266.239482 
L 522.951932 259.239482 
L 502.951932 259.239482 
z
" style="fill: #c5b0d5; stroke: #000000; stroke-linejoin: miter"/>
    </g>
    <g id="text_25">
     <!-- Mario - 7 -->
     <g transform="translate(530.951932 266.239482) scale(0.1 -0.1)">
      <use xlink:href="#DejaVuSans-4d"/>
      <use xlink:href="#DejaVuSans-61" x="86.279297"/>
      <use xlink:href="#DejaVuSans-72" x="147.558594"/>
      <use xlink:href="#DejaVuSans-69" x="188.671875"/>
      <use xlink:href="#DejaVuSans-6f" x="216.455078"/>
      <use xlink:href="#DejaVuSans-20" x="277.636719"/>
      <use xlink:href="#DejaVuSans-2d" x="309.423828"/>
      <use xlink:href="#DejaVuSans-20" x="345.507812"/>
      <use xlink:href="#DejaVuSans-37" x="377.294922"/>
     </g>
    </g>
    <g id="patch_41">
     <path d="M 502.951932 280.917607 
L 522.951932 280.917607 
L 522.951932 273.917607 
L 502.951932 273.917607 
z
" style="fill: #8c564b; stroke: #000000; stroke-linejoin: miter"/>
    </g>
    <g id="text_26">
     <!-- Meri - 5 -->
     <g transform="translate(530.951932 280.917607) scale(0.1 -0.1)">
      <use xlink:href="#DejaVuSans-4d"/>
      <use xlink:href="#DejaVuSans-65" x="86.279297"/>
      <use xlink:href="#DejaVuSans-72" x="147.802734"/>
      <use xlink:href="#DejaVuSans-69" x="188.916016"/>
      <use xlink:href="#DejaVuSans-20" x="216.699219"/>
      <use xlink:href="#DejaVuSans-2d" x="248.486328"/>
      <use xlink:href="#DejaVuSans-20" x="284.570312"/>
      <use xlink:href="#DejaVuSans-35" x="316.357422"/>
     </g>
    </g>
    <g id="patch_42">
     <path d="M 502.951932 295.595732 
L 522.951932 295.595732 
L 522.951932 288.595732 
L 502.951932 288.595732 
z
" style="fill: #c49c94; stroke: #000000; stroke-linejoin: miter"/>
    </g>
    <g id="text_27">
     <!-- Yassin - 3 -->
     <g transform="translate(530.951932 295.595732) scale(0.1 -0.1)">
      <use xlink:href="#DejaVuSans-59"/>
      <use xlink:href="#DejaVuSans-61" x="47.333984"/>
      <use xlink:href="#DejaVuSans-73" x="108.613281"/>
      <use xlink:href="#DejaVuSans-73" x="160.712891"/>
      <use xlink:href="#DejaVuSans-69" x="212.8125"/>
      <use xlink:href="#DejaVuSans-6e" x="240.595703"/>
      <use xlink:href="#DejaVuSans-20" x="303.974609"/>
      <use xlink:href="#DejaVuSans-2d" x="335.761719"/>
      <use xlink:href="#DejaVuSans-20" x="371.845703"/>
      <use xlink:href="#DejaVuSans-33" x="403.632812"/>
     </g>
    </g>
    <g id="patch_43">
     <path d="M 502.951932 310.273857 
L 522.951932 310.273857 
L 522.951932 303.273857 
L 502.951932 303.273857 
z
" style="fill: #e377c2; stroke: #000000; stroke-linejoin: miter"/>
    </g>
    <g id="text_28">
     <!-- Haizea - 2 -->
     <g transform="translate(530.951932 310.273857) scale(0.1 -0.1)">
      <use xlink:href="#DejaVuSans-48"/>
      <use xlink:href="#DejaVuSans-61" x="75.195312"/>
      <use xlink:href="#DejaVuSans-69" x="136.474609"/>
      <use xlink:href="#DejaVuSans-7a" x="164.257812"/>
      <use xlink:href="#DejaVuSans-65" x="216.748047"/>
      <use xlink:href="#DejaVuSans-61" x="278.271484"/>
      <use xlink:href="#DejaVuSans-20" x="339.550781"/>
      <use xlink:href="#DejaVuSans-2d" x="371.337891"/>
      <use xlink:href="#DejaVuSans-20" x="407.421875"/>
      <use xlink:href="#DejaVuSans-32" x="439.208984"/>
     </g>
    </g>
    <g id="patch_44">
     <path d="M 502.951932 324.951982 
L 522.951932 324.951982 
L 522.951932 317.951982 
L 502.951932 317.951982 
z
" style="fill: #f7b6d2; stroke: #000000; stroke-linejoin: miter"/>
    </g>
    <g id="text_29">
     <!-- Adriana - 0 -->
     <g transform="translate(530.951932 324.951982) scale(0.1 -0.1)">
      <use xlink:href="#DejaVuSans-41"/>
      <use xlink:href="#DejaVuSans-64" x="66.658203"/>
      <use xlink:href="#DejaVuSans-72" x="130.134766"/>
      <use xlink:href="#DejaVuSans-69" x="171.248047"/>
      <use xlink:href="#DejaVuSans-61" x="199.03125"/>
      <use xlink:href="#DejaVuSans-6e" x="260.310547"/>
      <use xlink:href="#DejaVuSans-61" x="323.689453"/>
      <use xlink:href="#DejaVuSans-20" x="384.96875"/>
      <use xlink:href="#DejaVuSans-2d" x="416.755859"/>
      <use xlink:href="#DejaVuSans-20" x="452.839844"/>
      <use xlink:href="#DejaVuSans-30" x="484.626953"/>
     </g>
    </g>
   </g>
  </g>
  <g id="text_30">
   <!-- ¿Quién ha enviado más links? ($Total= 311$) -->
   <g style="fill: #ffffff" transform="translate(194.1 18.144375) scale(0.12 -0.12)">
    <defs>
     <path id="DejaVuSans-bf" d="M 1563 2247 
L 2156 2247 
L 2156 1759 
Q 2156 1444 2070 1241 
Q 1984 1038 1703 766 
L 1422 491 
Q 1241 325 1161 178 
Q 1081 31 1081 -122 
Q 1081 -400 1286 -572 
Q 1491 -744 1831 -744 
Q 2075 -744 2356 -634 
Q 2638 -525 2938 -316 
L 2938 -903 
Q 2644 -1081 2344 -1168 
Q 2044 -1256 1722 -1256 
Q 1147 -1256 797 -953 
Q 447 -650 447 -153 
Q 447 84 561 298 
Q 675 513 953 781 
L 1228 1050 
Q 1378 1197 1437 1280 
Q 1497 1363 1522 1441 
Q 1544 1506 1553 1600 
Q 1563 1694 1563 1863 
L 1563 2247 
z
M 2175 2706 
L 1544 2706 
L 1544 3500 
L 2175 3500 
L 2175 2706 
z
" transform="scale(0.015625)"/>
     <path id="DejaVuSans-51" d="M 2522 4238 
Q 1834 4238 1429 3725 
Q 1025 3213 1025 2328 
Q 1025 1447 1429 934 
Q 1834 422 2522 422 
Q 3209 422 3611 934 
Q 4013 1447 4013 2328 
Q 4013 3213 3611 3725 
Q 3209 4238 2522 4238 
z
M 3406 84 
L 4238 -825 
L 3475 -825 
L 2784 -78 
Q 2681 -84 2626 -87 
Q 2572 -91 2522 -91 
Q 1538 -91 948 567 
Q 359 1225 359 2328 
Q 359 3434 948 4092 
Q 1538 4750 2522 4750 
Q 3503 4750 4090 4092 
Q 4678 3434 4678 2328 
Q 4678 1516 4351 937 
Q 4025 359 3406 84 
z
" transform="scale(0.015625)"/>
     <path id="DejaVuSans-68" d="M 3513 2113 
L 3513 0 
L 2938 0 
L 2938 2094 
Q 2938 2591 2744 2837 
Q 2550 3084 2163 3084 
Q 1697 3084 1428 2787 
Q 1159 2491 1159 1978 
L 1159 0 
L 581 0 
L 581 4863 
L 1159 4863 
L 1159 2956 
Q 1366 3272 1645 3428 
Q 1925 3584 2291 3584 
Q 2894 3584 3203 3211 
Q 3513 2838 3513 2113 
z
" transform="scale(0.015625)"/>
     <path id="DejaVuSans-76" d="M 191 3500 
L 800 3500 
L 1894 563 
L 2988 3500 
L 3597 3500 
L 2284 0 
L 1503 0 
L 191 3500 
z
" transform="scale(0.015625)"/>
     <path id="DejaVuSans-6d" d="M 3328 2828 
Q 3544 3216 3844 3400 
Q 4144 3584 4550 3584 
Q 5097 3584 5394 3201 
Q 5691 2819 5691 2113 
L 5691 0 
L 5113 0 
L 5113 2094 
Q 5113 2597 4934 2840 
Q 4756 3084 4391 3084 
Q 3944 3084 3684 2787 
Q 3425 2491 3425 1978 
L 3425 0 
L 2847 0 
L 2847 2094 
Q 2847 2600 2669 2842 
Q 2491 3084 2119 3084 
Q 1678 3084 1418 2786 
Q 1159 2488 1159 1978 
L 1159 0 
L 581 0 
L 581 3500 
L 1159 3500 
L 1159 2956 
Q 1356 3278 1631 3431 
Q 1906 3584 2284 3584 
Q 2666 3584 2933 3390 
Q 3200 3197 3328 2828 
z
" transform="scale(0.015625)"/>
     <path id="DejaVuSans-3f" d="M 1222 794 
L 1856 794 
L 1856 0 
L 1222 0 
L 1222 794 
z
M 1838 1253 
L 1241 1253 
L 1241 1734 
Q 1241 2050 1328 2253 
Q 1416 2456 1697 2725 
L 1978 3003 
Q 2156 3169 2236 3316 
Q 2316 3463 2316 3616 
Q 2316 3894 2111 4066 
Q 1906 4238 1569 4238 
Q 1322 4238 1042 4128 
Q 763 4019 459 3809 
L 459 4397 
Q 753 4575 1054 4662 
Q 1356 4750 1678 4750 
Q 2253 4750 2601 4447 
Q 2950 4144 2950 3647 
Q 2950 3409 2837 3195 
Q 2725 2981 2444 2713 
L 2169 2444 
Q 2022 2297 1961 2214 
Q 1900 2131 1875 2053 
Q 1856 1988 1847 1894 
Q 1838 1800 1838 1638 
L 1838 1253 
z
" transform="scale(0.015625)"/>
     <path id="DejaVuSans-28" d="M 1984 4856 
Q 1566 4138 1362 3434 
Q 1159 2731 1159 2009 
Q 1159 1288 1364 580 
Q 1569 -128 1984 -844 
L 1484 -844 
Q 1016 -109 783 600 
Q 550 1309 550 2009 
Q 550 2706 781 3412 
Q 1013 4119 1484 4856 
L 1984 4856 
z
" transform="scale(0.015625)"/>
     <path id="DejaVuSans-Oblique-54" d="M 378 4666 
L 4325 4666 
L 4225 4134 
L 2559 4134 
L 1759 0 
L 1125 0 
L 1925 4134 
L 275 4134 
L 378 4666 
z
" transform="scale(0.015625)"/>
     <path id="DejaVuSans-Oblique-6f" d="M 1625 -91 
Q 1009 -91 651 289 
Q 294 669 294 1325 
Q 294 1706 417 2101 
Q 541 2497 738 2766 
Q 1047 3184 1428 3384 
Q 1809 3584 2291 3584 
Q 2888 3584 3255 3212 
Q 3622 2841 3622 2241 
Q 3622 1825 3500 1412 
Q 3378 1000 3181 728 
Q 2875 309 2494 109 
Q 2113 -91 1625 -91 
z
M 891 1344 
Q 891 869 1089 633 
Q 1288 397 1691 397 
Q 2269 397 2648 901 
Q 3028 1406 3028 2181 
Q 3028 2634 2825 2865 
Q 2622 3097 2228 3097 
Q 1903 3097 1650 2945 
Q 1397 2794 1197 2484 
Q 1050 2253 970 1956 
Q 891 1659 891 1344 
z
" transform="scale(0.015625)"/>
     <path id="DejaVuSans-Oblique-74" d="M 2706 3500 
L 2619 3053 
L 1472 3053 
L 1100 1153 
Q 1081 1047 1072 975 
Q 1063 903 1063 863 
Q 1063 663 1183 572 
Q 1303 481 1569 481 
L 2150 481 
L 2053 0 
L 1503 0 
Q 991 0 739 200 
Q 488 400 488 806 
Q 488 878 497 964 
Q 506 1050 525 1153 
L 897 3053 
L 409 3053 
L 500 3500 
L 978 3500 
L 1172 4494 
L 1747 4494 
L 1556 3500 
L 2706 3500 
z
" transform="scale(0.015625)"/>
     <path id="DejaVuSans-Oblique-61" d="M 3438 1997 
L 3047 0 
L 2472 0 
L 2578 531 
Q 2325 219 2001 64 
Q 1678 -91 1281 -91 
Q 834 -91 548 182 
Q 263 456 263 884 
Q 263 1497 752 1853 
Q 1241 2209 2100 2209 
L 2900 2209 
L 2931 2363 
Q 2938 2388 2941 2417 
Q 2944 2447 2944 2509 
Q 2944 2788 2717 2942 
Q 2491 3097 2081 3097 
Q 1800 3097 1504 3025 
Q 1209 2953 897 2809 
L 997 3341 
Q 1322 3463 1633 3523 
Q 1944 3584 2234 3584 
Q 2853 3584 3176 3315 
Q 3500 3047 3500 2534 
Q 3500 2431 3484 2292 
Q 3469 2153 3438 1997 
z
M 2816 1759 
L 2241 1759 
Q 1534 1759 1195 1570 
Q 856 1381 856 984 
Q 856 709 1029 553 
Q 1203 397 1509 397 
Q 1978 397 2328 733 
Q 2678 1069 2791 1631 
L 2816 1759 
z
" transform="scale(0.015625)"/>
     <path id="DejaVuSans-Oblique-6c" d="M 1172 4863 
L 1747 4863 
L 800 0 
L 225 0 
L 1172 4863 
z
" transform="scale(0.015625)"/>
     <path id="DejaVuSans-3d" d="M 678 2906 
L 4684 2906 
L 4684 2381 
L 678 2381 
L 678 2906 
z
M 678 1631 
L 4684 1631 
L 4684 1100 
L 678 1100 
L 678 1631 
z
" transform="scale(0.015625)"/>
     <path id="DejaVuSans-29" d="M 513 4856 
L 1013 4856 
Q 1481 4119 1714 3412 
Q 1947 2706 1947 2009 
Q 1947 1309 1714 600 
Q 1481 -109 1013 -844 
L 513 -844 
Q 928 -128 1133 580 
Q 1338 1288 1338 2009 
Q 1338 2731 1133 3434 
Q 928 4138 513 4856 
z
" transform="scale(0.015625)"/>
    </defs>
    <use xlink:href="#DejaVuSans-bf" transform="translate(0 0.015625)"/>
    <use xlink:href="#DejaVuSans-51" transform="translate(53.076172 0.015625)"/>
    <use xlink:href="#DejaVuSans-75" transform="translate(131.787109 0.015625)"/>
    <use xlink:href="#DejaVuSans-69" transform="translate(195.166016 0.015625)"/>
    <use xlink:href="#DejaVuSans-e9" transform="translate(222.949219 0.015625)"/>
    <use xlink:href="#DejaVuSans-6e" transform="translate(284.472656 0.015625)"/>
    <use xlink:href="#DejaVuSans-20" transform="translate(347.851562 0.015625)"/>
    <use xlink:href="#DejaVuSans-68" transform="translate(379.638672 0.015625)"/>
    <use xlink:href="#DejaVuSans-61" transform="translate(443.017578 0.015625)"/>
    <use xlink:href="#DejaVuSans-20" transform="translate(504.296875 0.015625)"/>
    <use xlink:href="#DejaVuSans-65" transform="translate(536.083984 0.015625)"/>
    <use xlink:href="#DejaVuSans-6e" transform="translate(597.607422 0.015625)"/>
    <use xlink:href="#DejaVuSans-76" transform="translate(660.986328 0.015625)"/>
    <use xlink:href="#DejaVuSans-69" transform="translate(720.166016 0.015625)"/>
    <use xlink:href="#DejaVuSans-61" transform="translate(747.949219 0.015625)"/>
    <use xlink:href="#DejaVuSans-64" transform="translate(809.228516 0.015625)"/>
    <use xlink:href="#DejaVuSans-6f" transform="translate(872.705078 0.015625)"/>
    <use xlink:href="#DejaVuSans-20" transform="translate(933.886719 0.015625)"/>
    <use xlink:href="#DejaVuSans-6d" transform="translate(965.673828 0.015625)"/>
    <use xlink:href="#DejaVuSans-e1" transform="translate(1063.085938 0.015625)"/>
    <use xlink:href="#DejaVuSans-73" transform="translate(1124.365234 0.015625)"/>
    <use xlink:href="#DejaVuSans-20" transform="translate(1176.464844 0.015625)"/>
    <use xlink:href="#DejaVuSans-6c" transform="translate(1208.251953 0.015625)"/>
    <use xlink:href="#DejaVuSans-69" transform="translate(1236.035156 0.015625)"/>
    <use xlink:href="#DejaVuSans-6e" transform="translate(1263.818359 0.015625)"/>
    <use xlink:href="#DejaVuSans-6b" transform="translate(1327.197266 0.015625)"/>
    <use xlink:href="#DejaVuSans-73" transform="translate(1385.107422 0.015625)"/>
    <use xlink:href="#DejaVuSans-3f" transform="translate(1437.207031 0.015625)"/>
    <use xlink:href="#DejaVuSans-20" transform="translate(1490.283203 0.015625)"/>
    <use xlink:href="#DejaVuSans-28" transform="translate(1522.070312 0.015625)"/>
    <use xlink:href="#DejaVuSans-Oblique-54" transform="translate(1561.083984 0.015625)"/>
    <use xlink:href="#DejaVuSans-Oblique-6f" transform="translate(1622.167969 0.015625)"/>
    <use xlink:href="#DejaVuSans-Oblique-74" transform="translate(1683.349609 0.015625)"/>
    <use xlink:href="#DejaVuSans-Oblique-61" transform="translate(1722.558594 0.015625)"/>
    <use xlink:href="#DejaVuSans-Oblique-6c" transform="translate(1783.837891 0.015625)"/>
    <use xlink:href="#DejaVuSans-3d" transform="translate(1831.103516 0.015625)"/>
    <use xlink:href="#DejaVuSans-33" transform="translate(1934.375 0.015625)"/>
    <use xlink:href="#DejaVuSans-31" transform="translate(1997.998047 0.015625)"/>
    <use xlink:href="#DejaVuSans-31" transform="translate(2061.621094 0.015625)"/>
    <use xlink:href="#DejaVuSans-29" transform="translate(2125.244141 0.015625)"/>
   </g>
  </g>
 </g>
</svg>
